<svg t="1709055398242" class="icon" width="36" height="36" viewBox="0 0 1024 1024" version="1.1" xmlns="http://www.w3.org/2000/svg" p-id="7911">
    <path d="M512 0c282.7776 0 512 229.2224 512 512s-229.2224 512-512 512S0 794.7776 0 512 229.2224 0 512 0z m-51.2768 230.4c-57.3952 0-103.936 51.9424-103.936 115.9936 0 47.1552 24.1664 87.1936 60.3648 105.3184-88.32 22.0672-155.4432 109.4912-161.1008 212.8128-5.632 103.3472 413.952 104.4224 409.5232-0.2816-4.4288-104.704-71.9104-190.976-161.024-212.6336 36.0192-18.2272 60.16-58.2144 60.16-105.216C564.6848 282.368 518.144 230.4 460.6976 230.4z m149.4528 0A84.736 84.736 0 0 0 563.2 244.736l1.024-0.64 4.4032 5.0688c20.096 24.2432 32.9216 56.2432 34.5344 91.6224l0.1792 7.6288c0 37.8112-12.8 72.2432-33.792 98.0992 65.3056 31.7184 114.6624 97.28 130.7648 177.1008 1.408 10.9568 16.9472 16.4096 46.5408 16.384 29.5936-0.0256 45.184-5.504 46.7456-16.4608-3.968-94.8736-64.384-173.056-144.1792-192.6912 32.256-16.512 53.8368-52.736 53.8368-95.3344 0-58.0608-41.6768-105.1136-93.0816-105.1136z" fill="#d3217b" p-id="7912" />
</svg>